# This file uses meters as units for non-parametric coordinates.

mtllib Camino_Acuatico_low.mtl
g default
v -50.000000 6.722220 50.000000
v -40.000000 6.722220 50.000000
v -30.000000 9.967641 50.000000
v -20.000000 6.722220 50.000000
v -10.000000 4.783832 50.000000
v 0.000000 6.722220 50.000000
v 10.000000 6.722220 50.000000
v 20.000000 9.813161 50.000000
v 30.000000 6.722220 50.000000
v 40.000000 7.489721 50.000000
v -50.000000 6.722220 40.000000
v -40.000000 6.722220 40.000000
v -30.000000 6.722220 40.000000
v -20.000000 6.722220 40.000000
v -10.000000 6.722220 40.000000
v 0.000000 3.589422 40.000000
v 10.000000 6.722220 40.000000
v 20.000000 6.722220 40.000000
v 30.000000 4.516737 40.000000
v 40.000000 6.722220 40.000000
v -50.000000 6.722220 30.000000
v -40.000000 3.889636 30.000000
v -30.000000 6.722220 30.000000
v -20.000000 9.208539 30.000000
v -10.000000 6.722220 30.000000
v 0.000000 6.722220 30.000000
v 10.000000 6.722220 30.000000
v 20.000000 9.030663 30.000000
v 30.000000 6.722220 30.000000
v 40.000000 6.722220 30.000000
v -50.000000 6.722220 20.000000
v -40.000000 6.722220 20.000000
v -30.000000 6.722220 20.000000
v -20.000000 6.722220 20.000000
v -10.000000 6.722220 20.000000
v 0.000000 3.577654 20.000000
v 10.000000 6.722220 20.000000
v 20.000000 6.722220 20.000000
v 30.000000 8.439363 20.000000
v 40.000000 6.722220 20.000000
v -50.000000 6.722220 10.000000
v -40.000000 3.952093 10.000000
v -30.000000 6.722220 10.000000
v -20.000000 4.937299 10.000000
v -10.000000 6.722220 10.000000
v 0.000000 6.722220 10.000000
v 10.000000 6.722220 10.000000
v 20.000000 6.722220 10.000000
v 30.000000 6.722220 10.000000
v 40.000000 6.722220 10.000000
v -50.000000 6.722220 -0.000000
v -40.000000 3.901473 0.000000
v -30.000000 6.722220 0.000000
v -20.000000 8.072762 0.000000
v -10.000000 6.722220 0.000000
v -0.000000 9.090900 -0.000000
v 10.000000 9.090900 -0.000000
v 20.000000 6.722220 -0.000000
v 30.000000 6.722220 0.000000
v 40.000000 10.425991 0.000000
v -50.000000 6.722220 -50.000000
v -40.000000 6.722220 -50.000000
v -30.000000 9.967641 -50.000000
v -20.000000 6.722220 -50.000000
v -10.000000 4.783832 -50.000000
v 0.000000 6.722220 -50.000000
v 10.000000 6.722220 -50.000000
v 20.000000 9.813161 -50.000000
v 30.000000 6.722220 -50.000000
v 40.000000 7.489721 -50.000000
v -50.000000 6.722220 -40.000000
v -40.000000 6.722220 -40.000000
v -30.000000 6.722220 -40.000000
v -20.000000 6.722220 -40.000000
v -10.000000 6.722220 -40.000000
v 0.000000 3.589422 -40.000000
v 10.000000 6.722220 -40.000000
v 20.000000 6.722220 -40.000000
v 30.000000 4.516737 -40.000000
v 40.000000 6.722220 -40.000000
v -50.000000 6.722220 -30.000000
v -40.000000 3.889636 -30.000000
v -30.000000 6.722220 -30.000000
v -20.000000 9.208539 -30.000000
v -10.000000 6.722220 -30.000000
v 0.000000 6.722220 -30.000000
v 10.000000 6.722220 -30.000000
v 20.000000 9.030663 -30.000000
v 30.000000 6.722220 -30.000000
v 40.000000 6.722220 -30.000000
v -50.000000 6.722220 -20.000000
v -40.000000 6.722220 -20.000000
v -30.000000 6.722220 -20.000000
v -20.000000 6.722220 -20.000000
v -10.000000 6.722220 -20.000000
v 0.000000 3.577654 -20.000000
v 10.000000 6.722220 -20.000000
v 20.000000 6.722220 -20.000000
v 30.000000 8.439363 -20.000000
v 40.000000 6.722220 -20.000000
v -50.000000 6.722220 -10.000000
v -40.000000 3.952093 -10.000000
v -30.000000 6.722220 -10.000000
v -20.000000 4.937299 -10.000000
v -10.000000 6.722220 -10.000000
v -0.000000 6.722220 -10.000000
v 10.000000 6.722220 -10.000000
v 20.000000 6.722220 -10.000000
v 30.000000 6.722220 -10.000000
v 40.000000 6.722220 -10.000000
v 49.341492 6.772760 50.000000
v 49.341492 6.722220 40.000000
v 49.341492 6.722220 30.000000
v 49.341492 6.722220 20.000000
v 49.341492 6.722220 10.000000
v 49.341492 6.966115 0.000000
v 49.341492 6.722220 -10.000000
v 49.341492 6.722220 -20.000000
v 49.341492 6.722220 -30.000000
v 49.341492 6.722220 -40.000000
v 49.341492 6.772760 -50.000000
v 49.341492 -10.375450 50.000000
v 50.000000 -10.425991 50.000000
v 50.000000 -10.425991 40.000000
v 49.341492 -10.425991 40.000000
v 49.341492 -10.425991 30.000000
v 50.000000 -10.425991 30.000000
v 49.341492 -10.425991 20.000000
v 50.000000 -10.425991 20.000000
v 49.341492 -10.425991 10.000000
v 50.000000 -10.425991 10.000000
v 49.341492 -10.182096 0.000000
v 50.000000 -10.425991 0.000000
v 49.341492 -10.425991 -10.000000
v 50.000000 -10.425991 -10.000000
v 49.341492 -10.425991 -20.000000
v 50.000000 -10.425991 -20.000000
v 49.341492 -10.425991 -30.000000
v 50.000000 -10.425991 -30.000000
v 49.341492 -10.425991 -40.000000
v 50.000000 -10.425991 -40.000000
v 49.341492 -10.375450 -50.000000
v 50.000000 -10.425991 -50.000000
v 48.973644 6.800992 50.000000
v 48.973644 6.722220 40.000000
v 48.973644 6.722220 30.000000
v 48.973644 6.722220 20.000000
v 48.973644 6.722220 10.000000
v 48.973644 7.102357 0.000000
v 48.973644 6.722220 -10.000000
v 48.973644 6.722220 -20.000000
v 48.973644 6.722220 -30.000000
v 48.973644 6.722220 -40.000000
v 48.973644 6.800992 -50.000000
v 49.341496 6.323211 50.000000
v 49.341496 6.272671 40.000004
v 49.341496 6.272671 30.000000
v 49.341496 6.272671 20.000002
v 49.341496 6.272671 10.000001
v 49.341496 6.516566 0.000000
v 49.341496 6.272671 -10.000001
v 49.341496 6.272671 -20.000002
v 49.341496 6.272671 -30.000000
v 49.341496 6.272671 -40.000004
v 49.341496 6.323211 -50.000000
v 49.341492 -10.140960 50.000000
v 49.341492 -10.191501 40.000000
v 49.341492 -10.191501 30.000000
v 49.341492 -10.191501 20.000000
v 49.341492 -10.191501 10.000000
v 49.341492 -9.947607 0.000000
v 49.341492 -10.191501 -10.000000
v 49.341492 -10.191501 -20.000000
v 49.341492 -10.191501 -30.000000
v 49.341492 -10.191501 -40.000000
v 49.341492 -10.140960 -50.000000
vt 0.034115 0.034115
vt 0.127292 0.034115
vt 0.127292 0.127292
vt 0.034115 0.127292
vt 0.220469 0.034115
vt 0.220469 0.127292
vt 0.313646 0.034115
vt 0.313646 0.127292
vt 0.406823 0.034115
vt 0.406823 0.127292
vt 0.500000 0.034115
vt 0.500000 0.127292
vt 0.593177 0.034115
vt 0.593177 0.127292
vt 0.686354 0.034115
vt 0.686354 0.127292
vt 0.779531 0.034115
vt 0.779531 0.127292
vt 0.872708 0.034115
vt 0.872708 0.127292
vt 0.956322 0.034115
vt 0.956322 0.127292
vt 0.127292 0.220469
vt 0.034115 0.220469
vt 0.220469 0.220469
vt 0.313646 0.220469
vt 0.406823 0.220469
vt 0.500000 0.220469
vt 0.593177 0.220469
vt 0.686354 0.220469
vt 0.779531 0.220469
vt 0.872708 0.220469
vt 0.956322 0.220469
vt 0.127292 0.313646
vt 0.034115 0.313646
vt 0.220469 0.313646
vt 0.313646 0.313646
vt 0.406823 0.313646
vt 0.500000 0.313646
vt 0.593177 0.313646
vt 0.686354 0.313646
vt 0.779531 0.313646
vt 0.872708 0.313646
vt 0.956322 0.313646
vt 0.127292 0.406823
vt 0.034115 0.406823
vt 0.220469 0.406823
vt 0.313646 0.406823
vt 0.406823 0.406823
vt 0.500000 0.406823
vt 0.593177 0.406823
vt 0.686354 0.406823
vt 0.779531 0.406823
vt 0.872708 0.406823
vt 0.956322 0.406823
vt 0.127292 0.500000
vt 0.034115 0.500000
vt 0.220469 0.500000
vt 0.313646 0.500000
vt 0.406823 0.500000
vt 0.500000 0.500000
vt 0.593177 0.500000
vt 0.686354 0.500000
vt 0.779531 0.500000
vt 0.872708 0.500000
vt 0.956322 0.500000
vt 0.034115 0.965885
vt 0.034115 0.872708
vt 0.127292 0.872708
vt 0.127292 0.965885
vt 0.220469 0.872708
vt 0.220469 0.965885
vt 0.313646 0.872708
vt 0.313646 0.965885
vt 0.406823 0.872708
vt 0.406823 0.965885
vt 0.500000 0.872708
vt 0.500000 0.965885
vt 0.593177 0.872708
vt 0.593177 0.965885
vt 0.686354 0.872708
vt 0.686354 0.965885
vt 0.779531 0.872708
vt 0.779531 0.965885
vt 0.872708 0.872708
vt 0.872708 0.965885
vt 0.956322 0.872708
vt 0.956322 0.965885
vt 0.034115 0.779531
vt 0.127292 0.779531
vt 0.220469 0.779531
vt 0.313646 0.779531
vt 0.406823 0.779531
vt 0.500000 0.779531
vt 0.593177 0.779531
vt 0.686354 0.779531
vt 0.779531 0.779531
vt 0.872708 0.779531
vt 0.956322 0.779531
vt 0.034115 0.686354
vt 0.127292 0.686354
vt 0.220469 0.686354
vt 0.313646 0.686354
vt 0.406823 0.686354
vt 0.500000 0.686354
vt 0.593177 0.686354
vt 0.686354 0.686354
vt 0.779531 0.686354
vt 0.872708 0.686354
vt 0.956322 0.686354
vt 0.034115 0.593177
vt 0.127292 0.593177
vt 0.220469 0.593177
vt 0.313646 0.593177
vt 0.406823 0.593177
vt 0.500000 0.593177
vt 0.593177 0.593177
vt 0.686354 0.593177
vt 0.779531 0.593177
vt 0.872708 0.593177
vt 0.956322 0.593177
vt 0.959749 0.034115
vt 0.965885 0.034115
vt 0.965885 0.127292
vt 0.959749 0.127292
vt 0.959749 0.220469
vt 0.965885 0.220469
vt 0.959749 0.313646
vt 0.965885 0.313646
vt 0.959749 0.406823
vt 0.965885 0.406823
vt 0.959749 0.500000
vt 0.965885 0.500000
vt 0.959749 0.593177
vt 0.965885 0.593177
vt 0.959749 0.686354
vt 0.965885 0.686354
vt 0.959749 0.779531
vt 0.965885 0.779531
vt 0.959749 0.872708
vt 0.965885 0.872708
vt 0.959749 0.965885
vt 0.965885 0.965885
vt 0.959749 0.127292
vt 0.959749 0.034115
vt 0.959749 0.034115
vt 0.959749 0.127292
vt 0.959749 0.220469
vt 0.959749 0.220469
vt 0.959749 0.313646
vt 0.959749 0.313646
vt 0.959749 0.406823
vt 0.959749 0.406823
vt 0.959749 0.500000
vt 0.959749 0.500000
vt 0.959749 0.593177
vt 0.959749 0.593177
vt 0.959749 0.686354
vt 0.959749 0.686354
vt 0.959749 0.779531
vt 0.959749 0.779531
vt 0.959749 0.872708
vt 0.959749 0.872708
vt 0.959749 0.965885
vt 0.959749 0.965885
vt 0.959749 0.034115
vt 0.959749 0.127292
vt 0.959749 0.220469
vt 0.959749 0.313646
vt 0.959749 0.406823
vt 0.959749 0.500000
vt 0.959749 0.593177
vt 0.959749 0.686354
vt 0.959749 0.779531
vt 0.959749 0.872708
vt 0.959749 0.965885
vn 0.000000 1.000000 0.000000
vn -0.080607 0.993481 -0.080607
vn -0.040286 0.993047 -0.110608
vn 0.070462 0.995023 -0.070462
vn 0.000000 0.987089 -0.160176
vn -0.066100 0.994189 -0.084967
vn 0.128453 0.991187 -0.032388
vn 0.064594 0.996866 0.045676
vn 0.078067 0.996776 0.018539
vn 0.108846 0.990829 0.080071
vn -0.050095 0.992856 -0.108295
vn -0.024216 0.999413 0.024216
vn -0.151958 0.976636 -0.151958
vn -0.144280 0.989490 -0.009678
vn 0.053885 0.977294 -0.204923
vn 0.058405 0.998091 -0.020106
vn 0.059730 0.977378 -0.202890
vn 0.057791 0.998141 -0.019339
vn -0.059799 0.993417 -0.097710
vn -0.059287 0.998032 -0.020433
vn 0.038315 0.998431 -0.040839
vn 0.019180 0.999607 -0.020443
vn 0.000000 1.000000 0.000000
vn 0.140230 0.990119 0.000000
vn -0.131812 0.991275 0.000000
vn 0.000000 1.000000 0.000000
vn 0.139255 0.990257 -0.000146
vn 0.000000 1.000000 -0.000294
vn -0.134933 0.990855 -0.000146
vn 0.006097 0.998782 0.048973
vn 0.058780 0.993334 0.099155
vn -0.006426 0.998646 0.051615
vn 0.000000 1.000000 0.000000
vn 0.000000 0.999999 0.001561
vn 0.138714 0.990331 0.001546
vn -0.078450 0.995541 -0.052375
vn 0.000000 0.994347 -0.106177
vn 0.086927 0.994798 -0.053113
vn 0.000000 1.000000 0.000000
vn -0.106810 0.993866 -0.028679
vn -0.043258 0.997395 -0.057732
vn 0.028832 0.999168 -0.028832
vn 0.045204 0.998978 0.000000
vn 0.000000 1.000000 0.000000
vn 0.000000 0.997634 -0.068747
vn 0.204117 0.976521 -0.068863
vn -0.076533 0.996899 -0.018321
vn 0.000000 0.999460 0.032872
vn -0.017974 0.996179 0.085469
vn -0.029190 0.985850 0.165070
vn -0.009619 0.991845 0.127088
vn 0.008144 0.999934 0.008144
vn -0.046247 0.998924 0.003365
vn 0.017565 0.997085 0.074247
vn 0.091758 0.990967 0.097800
vn 0.000000 1.000000 0.000000
vn 0.269222 0.963078 0.000000
vn -0.127854 0.991793 0.000000
vn 0.000000 1.000000 0.000000
vn -0.069905 0.997554 0.000000
vn -0.058100 0.998311 0.000000
vn 0.058100 0.998311 0.000000
vn 0.059113 0.998251 0.000000
vn -0.092200 0.995741 0.000000
vn -0.010017 0.999950 0.000000
vn 0.182092 0.983281 0.000000
vn -0.000000 1.000000 0.000000
vn 0.070462 0.995023 0.070462
vn -0.040286 0.993047 0.110608
vn -0.080607 0.993481 0.080607
vn -0.066100 0.994189 0.084967
vn 0.000000 0.987089 0.160176
vn 0.064594 0.996866 -0.045676
vn 0.128453 0.991187 0.032388
vn 0.108846 0.990829 -0.080071
vn 0.078067 0.996776 -0.018539
vn -0.024216 0.999413 -0.024216
vn -0.050095 0.992856 0.108295
vn -0.144280 0.989490 0.009678
vn -0.151958 0.976636 0.151958
vn 0.058405 0.998091 0.020106
vn 0.053885 0.977294 0.204923
vn 0.057791 0.998141 0.019339
vn 0.059730 0.977378 0.202890
vn -0.059287 0.998032 0.020433
vn -0.059799 0.993417 0.097710
vn 0.019180 0.999607 0.020443
vn 0.038315 0.998431 0.040839
vn 0.140230 0.990119 0.000000
vn 0.000000 1.000000 0.000000
vn -0.131812 0.991275 0.000000
vn 0.000000 1.000000 0.000000
vn 0.139255 0.990257 0.000146
vn 0.000000 1.000000 0.000294
vn -0.134933 0.990855 0.000146
vn 0.006097 0.998782 -0.048973
vn 0.058780 0.993334 -0.099155
vn -0.006426 0.998646 -0.051615
vn -0.000000 1.000000 -0.000000
vn 0.138714 0.990331 -0.001546
vn 0.000000 0.999999 -0.001561
vn -0.078450 0.995541 0.052375
vn 0.000000 0.994347 0.106177
vn 0.086927 0.994798 0.053113
vn 0.000000 1.000000 0.000000
vn -0.106810 0.993866 0.028679
vn -0.043258 0.997395 0.057732
vn 0.028832 0.999168 0.028832
vn 0.045204 0.998978 0.000000
vn 0.000000 1.000000 0.000000
vn 0.204117 0.976521 0.068863
vn 0.000000 0.997634 0.068747
vn -0.076533 0.996899 0.018321
vn 0.000000 0.999460 -0.032872
vn -0.017974 0.996179 -0.085469
vn -0.029190 0.985850 -0.165070
vn -0.009619 0.991845 -0.127088
vn 0.008144 0.999934 -0.008144
vn -0.046247 0.998924 -0.003365
vn 0.017565 0.997085 -0.074247
vn 0.091758 0.990967 -0.097800
vn 0.367941 0.929846 -0.002350
vn 0.038347 0.999261 -0.002525
vn 0.019184 0.999815 -0.001263
vn 0.350882 0.936419 -0.001183
vn 0.335458 0.942055 0.000000
vn 0.000000 1.000000 0.000000
vn 0.335458 0.942055 0.000000
vn 0.000000 1.000000 0.000000
vn 0.407258 0.913296 0.005569
vn 0.092197 0.995722 0.006071
vn 0.481089 0.876672 0.000000
vn 0.182091 0.983282 0.000000
vn 0.407258 0.913296 -0.005569
vn 0.092197 0.995722 -0.006071
vn 0.335458 0.942055 0.000000
vn 0.000000 1.000000 0.000000
vn 0.335458 0.942055 0.000000
vn 0.000000 1.000000 0.000000
vn 0.350882 0.936419 0.001183
vn 0.019184 0.999815 0.001263
vn 0.367941 0.929846 0.002350
vn 0.038347 0.999261 0.002525
vn 0.779214 0.626755 -0.002026
vn 0.782377 0.622792 -0.004027
vn 1.000000 0.000000 -0.000000
vn 1.000000 -0.000000 0.000000
vn 0.773926 0.633276 0.000000
vn 1.000000 0.000000 0.000000
vn 0.773925 0.633277 0.000000
vn 1.000000 -0.000000 0.000000
vn 0.797974 0.602619 0.009401
vn 1.000000 -0.000000 -0.000000
vn 0.810125 0.586257 0.000000
vn 1.000000 0.000000 0.000000
vn 0.797973 0.602620 -0.009401
vn 1.000000 -0.000000 0.000000
vn 0.773925 0.633277 0.000000
vn 1.000000 -0.000000 0.000000
vn 0.773927 0.633275 -0.000000
vn 1.000000 0.000000 0.000000
vn 0.779215 0.626754 0.002026
vn 1.000000 -0.000000 -0.000000
vn 0.782378 0.622792 0.004027
vn 1.000000 0.000000 0.000000
vn 1.000000 -0.000000 0.000000
vn 1.000000 -0.000000 0.000000
vn 1.000000 -0.000000 0.000000
vn 1.000000 -0.000000 0.000000
vn 1.000000 -0.000000 -0.000000
vn 1.000000 -0.000000 0.000000
vn 1.000000 -0.000000 0.000000
vn 1.000000 -0.000000 0.000000
vn 1.000000 -0.000000 0.000000
vn 1.000000 -0.000000 -0.000000
vn 1.000000 -0.000000 -0.000000
s 1
g Camino_Acuatico_geo Camino_Acuatico_geo_grp
usemtl lambert14SG
f 1/1/1 2/2/2 12/3/3 11/4/4
f 2/2/2 3/5/5 13/6/6 12/3/3
f 3/5/5 4/7/7 14/8/8 13/6/6
f 4/7/7 5/9/9 15/10/10 14/8/8
f 5/9/9 6/11/11 16/12/12 15/10/10
f 6/11/11 7/13/13 17/14/14 16/12/12
f 7/13/13 8/15/15 18/16/16 17/14/14
f 8/15/15 9/17/17 19/18/18 18/16/16
f 9/17/17 10/19/19 20/20/20 19/18/18
f 10/19/19 144/21/21 145/22/22 20/20/20
f 11/4/4 12/3/3 22/23/23 21/24/24
f 12/3/3 13/6/6 23/25/25 22/23/23
f 13/6/6 14/8/8 24/26/26 23/25/25
f 14/8/8 15/10/10 25/27/27 24/26/26
f 15/10/10 16/12/12 26/28/28 25/27/27
f 16/12/12 17/14/14 27/29/29 26/28/28
f 17/14/14 18/16/16 28/30/30 27/29/29
f 18/16/16 19/18/18 29/31/31 28/30/30
f 19/18/18 20/20/20 30/32/32 29/31/31
f 20/20/20 145/22/22 146/33/33 30/32/32
f 21/24/24 22/23/23 32/34/34 31/35/35
f 22/23/23 23/25/25 33/36/36 32/34/34
f 23/25/25 24/26/26 34/37/37 33/36/36
f 24/26/26 25/27/27 35/38/38 34/37/37
f 25/27/27 26/28/28 36/39/39 35/38/38
f 26/28/28 27/29/29 37/40/40 36/39/39
f 27/29/29 28/30/30 38/41/41 37/40/40
f 28/30/30 29/31/31 39/42/42 38/41/41
f 29/31/31 30/32/32 40/43/43 39/42/42
f 30/32/32 146/33/33 147/44/44 40/43/43
f 31/35/35 32/34/34 42/45/45 41/46/46
f 32/34/34 33/36/36 43/47/47 42/45/45
f 33/36/36 34/37/37 44/48/48 43/47/47
f 34/37/37 35/38/38 45/49/49 44/48/48
f 35/38/38 36/39/39 46/50/50 45/49/49
f 36/39/39 37/40/40 47/51/51 46/50/50
f 37/40/40 38/41/41 48/52/52 47/51/51
f 38/41/41 39/42/42 49/53/53 48/52/52
f 39/42/42 40/43/43 50/54/54 49/53/53
f 40/43/43 147/44/44 148/55/55 50/54/54
f 41/46/46 42/45/45 52/56/56 51/57/57
f 42/45/45 43/47/47 53/58/58 52/56/56
f 43/47/47 44/48/48 54/59/59 53/58/58
f 44/48/48 45/49/49 55/60/60 54/59/59
f 45/49/49 46/50/50 56/61/61 55/60/60
f 46/50/50 47/51/51 57/62/62 56/61/61
f 47/51/51 48/52/52 58/63/63 57/62/62
f 48/52/52 49/53/53 59/64/64 58/63/63
f 49/53/53 50/54/54 60/65/65 59/64/64
f 50/54/54 148/55/55 149/66/66 60/65/65
f 61/67/67 71/68/68 72/69/69 62/70/70
f 62/70/70 72/69/69 73/71/71 63/72/72
f 63/72/72 73/71/71 74/73/73 64/74/74
f 64/74/74 74/73/73 75/75/75 65/76/76
f 65/76/76 75/75/75 76/77/77 66/78/78
f 66/78/78 76/77/77 77/79/79 67/80/80
f 67/80/80 77/79/79 78/81/81 68/82/82
f 68/82/82 78/81/81 79/83/83 69/84/84
f 69/84/84 79/83/83 80/85/85 70/86/86
f 70/86/86 80/85/85 153/87/87 154/88/88
f 71/68/68 81/89/89 82/90/90 72/69/69
f 72/69/69 82/90/90 83/91/91 73/71/71
f 73/71/71 83/91/91 84/92/92 74/73/73
f 74/73/73 84/92/92 85/93/93 75/75/75
f 75/75/75 85/93/93 86/94/94 76/77/77
f 76/77/77 86/94/94 87/95/95 77/79/79
f 77/79/79 87/95/95 88/96/96 78/81/81
f 78/81/81 88/96/96 89/97/97 79/83/83
f 79/83/83 89/97/97 90/98/98 80/85/85
f 80/85/85 90/98/98 152/99/99 153/87/87
f 81/89/89 91/100/100 92/101/101 82/90/90
f 82/90/90 92/101/101 93/102/102 83/91/91
f 83/91/91 93/102/102 94/103/103 84/92/92
f 84/92/92 94/103/103 95/104/104 85/93/93
f 85/93/93 95/104/104 96/105/105 86/94/94
f 86/94/94 96/105/105 97/106/106 87/95/95
f 87/95/95 97/106/106 98/107/107 88/96/96
f 88/96/96 98/107/107 99/108/108 89/97/97
f 89/97/97 99/108/108 100/109/109 90/98/98
f 90/98/98 100/109/109 151/110/110 152/99/99
f 91/100/100 101/111/111 102/112/112 92/101/101
f 92/101/101 102/112/112 103/113/113 93/102/102
f 93/102/102 103/113/113 104/114/114 94/103/103
f 94/103/103 104/114/114 105/115/115 95/104/104
f 95/104/104 105/115/115 106/116/116 96/105/105
f 96/105/105 106/116/116 107/117/117 97/106/106
f 97/106/106 107/117/117 108/118/118 98/107/107
f 98/107/107 108/118/118 109/119/119 99/108/108
f 99/108/108 109/119/119 110/120/120 100/109/109
f 100/109/109 110/120/120 150/121/121 151/110/110
f 101/111/111 51/57/57 52/56/56 102/112/112
f 102/112/112 52/56/56 53/58/58 103/113/113
f 103/113/113 53/58/58 54/59/59 104/114/114
f 104/114/114 54/59/59 55/60/60 105/115/115
f 105/115/115 55/60/60 56/61/61 106/116/116
f 106/116/116 56/61/61 57/62/62 107/117/117
f 107/117/117 57/62/62 58/63/63 108/118/118
f 108/118/118 58/63/63 59/64/64 109/119/119
f 109/119/119 59/64/64 60/65/65 110/120/120
f 110/120/120 60/65/65 149/66/66 150/121/121
f 122/122/122 123/123/123 124/124/124 125/125/125
f 126/126/126 125/125/125 124/124/124 127/127/127
f 128/128/128 126/126/126 127/127/127 129/129/129
f 130/130/130 128/128/128 129/129/129 131/131/131
f 132/132/132 130/130/130 131/131/131 133/133/133
f 134/134/134 132/132/132 133/133/133 135/135/135
f 136/136/136 134/134/134 135/135/135 137/137/137
f 138/138/138 136/136/136 137/137/137 139/139/139
f 140/140/140 138/138/138 139/139/139 141/141/141
f 142/142/142 140/140/140 141/141/141 143/143/143
f 112/144/144 111/145/145 155/146/146 156/147/147
f 113/148/148 112/144/144 156/147/147 157/149/149
f 114/150/150 113/148/148 157/149/149 158/151/151
f 115/152/152 114/150/150 158/151/151 159/153/153
f 116/154/154 115/152/152 159/153/153 160/155/155
f 117/156/156 116/154/154 160/155/155 161/157/157
f 118/158/158 117/156/156 161/157/157 162/159/159
f 119/160/160 118/158/158 162/159/159 163/161/161
f 120/162/162 119/160/160 163/161/161 164/163/163
f 121/164/164 120/162/162 164/163/163 165/165/165
f 144/21/21 111/145/145 112/144/144 145/22/22
f 146/33/33 145/22/22 112/144/144 113/148/148
f 147/44/44 146/33/33 113/148/148 114/150/150
f 148/55/55 147/44/44 114/150/150 115/152/152
f 149/66/66 148/55/55 115/152/152 116/154/154
f 150/121/121 149/66/66 116/154/154 117/156/156
f 151/110/110 150/121/121 117/156/156 118/158/158
f 152/99/99 151/110/110 118/158/158 119/160/160
f 153/87/87 152/99/99 119/160/160 120/162/162
f 154/88/88 153/87/87 120/162/162 121/164/164
f 156/147/147 155/146/146 166/166/166 167/167/167
f 157/149/149 156/147/147 167/167/167 168/168/168
f 158/151/151 157/149/149 168/168/168 169/169/169
f 159/153/153 158/151/151 169/169/169 170/170/170
f 160/155/155 159/153/153 170/170/170 171/171/171
f 161/157/157 160/155/155 171/171/171 172/172/172
f 162/159/159 161/157/157 172/172/172 173/173/173
f 163/161/161 162/159/159 173/173/173 174/174/174
f 164/163/163 163/161/161 174/174/174 175/175/175
f 165/165/165 164/163/163 175/175/175 176/176/176
f 167/167/167 166/166/166 122/122/122 125/125/125
f 168/168/168 167/167/167 125/125/125 126/126/126
f 169/169/169 168/168/168 126/126/126 128/128/128
f 170/170/170 169/169/169 128/128/128 130/130/130
f 171/171/171 170/170/170 130/130/130 132/132/132
f 172/172/172 171/171/171 132/132/132 134/134/134
f 173/173/173 172/172/172 134/134/134 136/136/136
f 174/174/174 173/173/173 136/136/136 138/138/138
f 175/175/175 174/174/174 138/138/138 140/140/140
f 176/176/176 175/175/175 140/140/140 142/142/142
