# This file uses centimeters as units for non-parametric coordinates.

mtllib Columna_decorativa_low.mtl
g default
v 10.294108 0.000000 -45.250047
v 3.876958 0.000000 -49.912378
v -4.055075 0.000000 -49.912378
v -10.472224 0.000000 -45.250047
v -12.923357 0.000000 -37.706236
v -10.472222 0.000000 -30.162428
v -4.055073 0.000000 -25.500094
v 3.876959 0.000000 -25.500094
v 10.294107 0.000000 -30.162428
v 12.745240 0.000000 -37.706236
v 10.294108 159.631754 -45.250047
v 3.876958 159.631754 -49.912378
v -4.055075 159.631754 -49.912378
v -10.472224 159.631754 -45.250047
v -12.923357 159.631754 -37.706236
v -10.472222 159.631754 -30.162428
v -4.055073 159.631754 -25.500094
v 3.876959 159.631754 -25.500094
v 10.294107 159.631754 -30.162428
v 12.745240 159.631754 -37.706236
v -0.089057 0.000000 -37.706236
v -0.089057 159.631754 -37.706236
v 3.876959 129.200958 -25.500094
v -4.055073 129.200958 -25.500094
v -10.472222 129.200958 -30.162428
v -12.923357 129.200958 -37.706236
v -10.472224 129.200958 -45.250047
v -4.055075 129.200958 -49.912378
v 3.876958 129.200958 -49.912378
v 10.294108 129.200958 -45.250047
v 12.745240 129.200958 -37.706236
v 10.294107 129.200958 -30.162428
v 4.745986 133.361355 -22.825507
v -4.924099 133.361355 -22.825507
v 4.745986 159.631754 -22.825507
v -4.924099 159.631754 -22.825507
v -12.747362 133.361355 -28.509436
v -12.747362 159.631754 -28.509436
v -15.735583 133.361355 -37.706236
v -15.735583 159.631754 -37.706236
v -12.747363 133.361355 -46.903033
v -12.747363 159.631754 -46.903033
v -4.924101 133.361355 -52.586960
v -4.924101 159.631754 -52.586960
v 4.745984 133.361355 -52.586966
v 4.745984 159.631754 -52.586966
v 12.569248 133.361355 -46.903036
v 12.569248 159.631754 -46.903036
v 15.557467 133.361355 -37.706236
v 15.557467 159.631754 -37.706236
v 12.569247 133.361355 -28.509439
v 12.569247 159.631754 -28.509439
v 4.745986 151.381545 -22.825507
v -4.924099 151.381545 -22.825507
v -12.747362 151.381545 -28.509436
v -15.735583 151.381545 -37.706236
v -12.747363 151.381545 -46.903033
v -4.924101 151.381545 -52.586960
v 4.745984 151.381545 -52.586966
v 12.569248 151.381545 -46.903036
v 15.557467 151.381545 -37.706236
v 12.569247 151.381545 -28.509439
v 5.504565 154.282327 -20.490839
v -5.682678 154.282327 -20.490839
v 5.504565 159.631754 -20.490839
v -5.682678 159.631754 -20.490839
v -14.733347 154.282327 -27.066530
v -14.733347 159.631754 -27.066533
v -18.190397 154.282327 -37.706236
v -18.190397 159.631754 -37.706236
v -14.733350 154.282327 -48.345933
v -14.733350 159.631754 -48.345933
v -5.682680 154.282327 -54.921635
v -5.682680 159.631754 -54.921635
v 5.504563 154.282327 -54.921635
v 5.504563 159.631754 -54.921635
v 14.555234 154.282327 -48.345939
v 14.555234 159.631754 -48.345939
v 18.012280 154.282327 -37.706236
v 18.012280 159.631754 -37.706236
v 14.555234 154.282327 -27.066536
v 14.555234 159.631754 -27.066536
v 4.405308 97.296594 -23.874005
v -4.583420 97.296594 -23.874005
v -11.855455 97.296594 -29.157444
v -14.633126 97.296594 -37.706236
v -11.855457 97.296594 -46.255021
v -4.583423 97.296594 -51.538467
v 4.405306 97.296594 -51.538467
v 11.677341 97.296594 -46.255027
v 14.455009 97.296594 -37.706236
v 11.677340 97.296594 -29.157447
v 4.790769 61.257359 -22.687678
v -4.968881 61.257359 -22.687678
v -12.864605 61.257359 -28.424253
v -15.880504 61.257359 -37.706236
v -12.864608 61.257359 -46.988215
v -4.968884 61.257359 -52.724792
v 4.790767 61.257359 -52.724792
v 12.686491 61.257359 -46.988218
v 15.702388 61.257359 -37.706236
v 12.686490 61.257359 -28.424256
v 4.136932 17.358231 -24.699980
v -4.315045 17.358231 -24.699980
v -11.152839 17.358231 -29.667927
v -13.764642 17.358231 -37.706236
v -11.152840 17.358231 -45.744544
v -4.315048 17.358231 -50.712493
v 4.136930 17.358231 -50.712496
v 10.974725 17.358231 -45.744544
v 13.586526 17.358231 -37.706236
v 10.974723 17.358231 -29.667927
v 3.876959 5.689490 -25.500094
v -4.055073 5.689490 -25.500094
v -10.472222 5.689490 -30.162428
v -12.923357 5.689490 -37.706236
v -10.472224 5.689490 -45.250047
v -4.055075 5.689490 -49.912378
v 3.876958 5.689490 -49.912378
v 10.294108 5.689490 -45.250047
v 12.745240 5.689490 -37.706236
v 10.294107 5.689490 -30.162428
v 12.125674 0.000000 -46.580760
v 4.576554 0.000000 -52.065510
v 4.576554 3.794729 -52.065510
v 12.125674 3.794729 -46.580760
v -4.754671 0.000000 -52.065510
v -4.754671 3.794729 -52.065510
v -12.303790 0.000000 -46.580754
v -12.303790 3.794729 -46.580754
v -15.187294 0.000000 -37.706236
v -15.187294 3.794729 -37.706236
v -12.303788 0.000000 -28.831714
v -12.303788 3.794729 -28.831714
v -4.754668 0.000000 -23.346957
v -4.754668 3.794729 -23.346957
v 4.576555 0.000000 -23.346958
v 4.576555 3.794729 -23.346958
v 12.125673 0.000000 -28.831714
v 12.125673 3.794729 -28.831714
v 15.009179 0.000000 -37.706236
v 15.009179 3.794729 -37.706236
vt 0.844033 0.180492
vt 0.899506 0.180492
vt 0.944384 0.147886
vt 0.961526 0.095129
vt 0.944384 0.042372
vt 0.899506 0.009766
vt 0.844033 0.009766
vt 0.799155 0.042372
vt 0.782013 0.095129
vt 0.895347 0.167692
vt 0.848192 0.167692
vt 0.871770 0.095129
vt 0.933496 0.139976
vt 0.948067 0.095129
vt 0.933496 0.050282
vt 0.895347 0.022566
vt 0.848192 0.022566
vt 0.810044 0.050282
vt 0.795472 0.095129
vt 0.810044 0.139976
vt 0.662690 0.112108
vt 0.686267 0.184671
vt 0.639113 0.184671
vt 0.600964 0.156955
vt 0.586393 0.112108
vt 0.600964 0.067261
vt 0.639113 0.039545
vt 0.686267 0.039545
vt 0.724416 0.067261
vt 0.738988 0.112108
vt 0.724416 0.156955
vt 0.633947 0.023645
vt 0.691434 0.023645
vt 0.587439 0.057435
vt 0.569674 0.112108
vt 0.587439 0.166781
vt 0.633947 0.200571
vt 0.691434 0.200571
vt 0.737942 0.166781
vt 0.755706 0.112108
vt 0.737942 0.057435
vt 0.629437 0.009766
vt 0.575633 0.048857
vt 0.555081 0.112108
vt 0.575633 0.175359
vt 0.629437 0.214451
vt 0.695943 0.214451
vt 0.749748 0.175359
vt 0.770299 0.112108
vt 0.749748 0.048857
vt 0.695943 0.009766
vt 0.799155 0.147886
vt 0.436796 0.009766
vt 0.436796 0.033073
vt 0.009766 0.009766
vt 0.009766 0.033073
vt 0.063144 0.009766
vt 0.063144 0.033073
vt 0.116523 0.009766
vt 0.116523 0.033073
vt 0.169902 0.009766
vt 0.169902 0.033073
vt 0.223281 0.009766
vt 0.223281 0.033073
vt 0.276659 0.009766
vt 0.276659 0.033073
vt 0.330038 0.009766
vt 0.330038 0.033073
vt 0.383417 0.009766
vt 0.383417 0.033073
vt 0.223281 0.828880
vt 0.276659 0.828880
vt 0.276659 0.939561
vt 0.223281 0.939561
vt 0.169902 0.828880
vt 0.169902 0.939561
vt 0.116523 0.828880
vt 0.116523 0.939561
vt 0.063144 0.828880
vt 0.063144 0.939561
vt 0.009766 0.828880
vt 0.009766 0.939561
vt 0.490175 0.828880
vt 0.490175 0.939561
vt 0.436796 0.828880
vt 0.436796 0.939561
vt 0.383417 0.828880
vt 0.383417 0.939561
vt 0.330038 0.828880
vt 0.330038 0.939561
vt 0.223281 0.803326
vt 0.276659 0.803326
vt 0.169902 0.803326
vt 0.116523 0.803326
vt 0.063144 0.803326
vt 0.009766 0.803326
vt 0.436796 0.803326
vt 0.383417 0.803326
vt 0.330038 0.803326
vt 0.223281 0.957378
vt 0.276659 0.957378
vt 0.276659 0.990234
vt 0.223281 0.990234
vt 0.169902 0.957378
vt 0.169902 0.990234
vt 0.116523 0.957378
vt 0.116523 0.990234
vt 0.063144 0.957378
vt 0.063144 0.990234
vt 0.009766 0.957378
vt 0.009766 0.990234
vt 0.490175 0.957378
vt 0.490175 0.990234
vt 0.436796 0.957378
vt 0.436796 0.990234
vt 0.383417 0.957378
vt 0.383417 0.990234
vt 0.330038 0.957378
vt 0.330038 0.990234
vt 0.223281 0.607368
vt 0.276659 0.607368
vt 0.169902 0.607368
vt 0.116523 0.607368
vt 0.063144 0.607368
vt 0.009766 0.607368
vt 0.436796 0.607368
vt 0.383417 0.607368
vt 0.330038 0.607368
vt 0.223281 0.386012
vt 0.276659 0.386012
vt 0.169902 0.386012
vt 0.116523 0.386012
vt 0.063144 0.386012
vt 0.009766 0.386012
vt 0.436796 0.386012
vt 0.383417 0.386012
vt 0.330038 0.386012
vt 0.223281 0.116381
vt 0.276659 0.116381
vt 0.169902 0.116381
vt 0.116523 0.116381
vt 0.063144 0.116381
vt 0.009766 0.116381
vt 0.436796 0.116381
vt 0.383417 0.116381
vt 0.330038 0.116381
vt 0.223281 0.044711
vt 0.276659 0.044711
vt 0.169902 0.044711
vt 0.116523 0.044711
vt 0.063144 0.044711
vt 0.009766 0.044711
vt 0.436796 0.044711
vt 0.383417 0.044711
vt 0.330038 0.044711
vt 0.490175 0.009766
vt 0.543553 0.009766
vt 0.543553 0.803326
vt 0.543553 0.828880
vt 0.543553 0.990234
vt 0.543553 0.939561
vt 0.543553 0.957378
vt 0.543553 0.607368
vt 0.490175 0.803326
vt 0.543553 0.386012
vt 0.490175 0.607368
vt 0.543553 0.116381
vt 0.490175 0.386012
vt 0.543553 0.044711
vt 0.490175 0.116381
vt 0.490175 0.044711
vt 0.490175 0.033073
vt 0.543553 0.033073
vn 0.740096 -0.403886 -0.537712
vn 0.282691 -0.403886 -0.870035
vn 0.292907 0.318662 -0.901477
vn 0.766842 0.318662 -0.557143
vn -0.282692 -0.403886 -0.870035
vn -0.292907 0.318662 -0.901476
vn -0.740096 -0.403886 -0.537712
vn -0.766842 0.318662 -0.557143
vn -0.914809 -0.403886 0.000000
vn -0.947868 0.318662 0.000000
vn -0.740096 -0.403886 0.537711
vn -0.766842 0.318662 0.557143
vn -0.282692 -0.403886 0.870035
vn -0.292907 0.318662 0.901476
vn 0.282692 -0.403886 0.870035
vn 0.292908 0.318662 0.901476
vn 0.740096 -0.403886 0.537711
vn 0.766842 0.318662 0.557143
vn 0.914809 -0.403886 0.000000
vn 0.947868 0.318662 0.000000
vn 0.000000 -1.000000 0.000000
vn 0.000000 -1.000000 0.000000
vn 0.000000 -1.000000 0.000000
vn 0.000000 -1.000000 0.000000
vn 0.000000 -1.000000 0.000000
vn 0.000000 -1.000000 0.000000
vn 0.000000 -1.000000 0.000000
vn 0.000000 -1.000000 0.000000
vn 0.000000 -1.000000 0.000000
vn 0.000000 -1.000000 0.000000
vn 0.000000 -1.000000 0.000000
vn 0.000000 1.000000 0.000000
vn 0.000000 1.000000 0.000000
vn 0.000000 1.000000 0.000001
vn 0.000000 1.000000 0.000001
vn 0.000000 1.000000 0.000001
vn 0.000000 1.000000 0.000001
vn 0.000000 1.000000 -0.000001
vn 0.000000 1.000000 -0.000000
vn 0.000000 1.000000 0.000000
vn 0.000000 1.000000 0.000000
vn 0.000000 1.000000 0.000000
vn -0.307282 -0.105824 0.945716
vn 0.307282 -0.105824 0.945716
vn 0.306092 -0.137262 0.942055
vn -0.306092 -0.137262 0.942055
vn -0.804474 -0.105824 0.584485
vn -0.801359 -0.137262 0.582222
vn -0.994385 -0.105824 0.000000
vn -0.990535 -0.137262 0.000000
vn -0.804474 -0.105824 -0.584485
vn -0.801359 -0.137262 -0.582222
vn -0.307282 -0.105824 -0.945716
vn -0.306092 -0.137263 -0.942054
vn 0.307281 -0.105824 -0.945716
vn 0.306092 -0.137263 -0.942055
vn 0.804474 -0.105824 -0.584485
vn 0.801360 -0.137262 -0.582221
vn 0.994385 -0.105824 0.000000
vn 0.990535 -0.137262 0.000000
vn 0.804474 -0.105824 0.584485
vn 0.801359 -0.137262 0.582222
vn -0.308757 -0.041038 0.950255
vn 0.308757 -0.041038 0.950255
vn 0.000000 1.000000 -0.000000
vn 0.000000 1.000000 -0.000002
vn -0.808335 -0.041038 0.587290
vn 0.000000 1.000000 0.000001
vn -0.999158 -0.041038 0.000000
vn 0.000000 1.000000 0.000000
vn -0.808335 -0.041038 -0.587290
vn 0.000000 1.000000 -0.000000
vn -0.308757 -0.041038 -0.950255
vn 0.000000 1.000000 0.000002
vn 0.308756 -0.041038 -0.950255
vn 0.000000 1.000000 0.000001
vn 0.808335 -0.041038 -0.587290
vn 0.000000 1.000000 -0.000002
vn 0.999158 -0.041038 0.000000
vn 0.000000 1.000000 -0.000000
vn 0.808335 -0.041038 0.587290
vn 0.000000 1.000000 -0.000001
vn -0.299153 -0.250648 0.920697
vn 0.299153 -0.250648 0.920697
vn 0.292371 0.323786 0.899823
vn -0.292370 0.323786 0.899823
vn -0.783192 -0.250648 0.569022
vn -0.765436 0.323786 0.556121
vn -0.968078 -0.250648 -0.000000
vn -0.946130 0.323786 0.000000
vn -0.783192 -0.250648 -0.569022
vn -0.765436 0.323786 -0.556121
vn -0.299153 -0.250648 -0.920697
vn -0.292371 0.323787 -0.899823
vn 0.299153 -0.250648 -0.920697
vn 0.292370 0.323786 -0.899823
vn 0.783192 -0.250648 -0.569022
vn 0.765435 0.323786 -0.556122
vn 0.968078 -0.250647 0.000000
vn 0.946130 0.323786 -0.000000
vn 0.783192 -0.250647 0.569022
vn 0.765436 0.323786 0.556120
vn -0.308732 0.042920 0.950180
vn 0.308732 0.042920 0.950180
vn -0.808271 0.042920 0.587244
vn -0.999079 0.042920 0.000000
vn -0.808271 0.042920 -0.587244
vn -0.308732 0.042920 -0.950180
vn 0.308732 0.042920 -0.950180
vn 0.808271 0.042920 -0.587244
vn 0.999079 0.042920 0.000000
vn 0.808271 0.042920 0.587244
vn -0.309001 -0.010212 0.951007
vn 0.309001 -0.010212 0.951007
vn -0.808975 -0.010212 0.587755
vn -0.999948 -0.010212 0.000000
vn -0.808975 -0.010212 -0.587755
vn -0.309001 -0.010212 -0.951007
vn 0.309001 -0.010212 -0.951007
vn 0.808975 -0.010212 -0.587755
vn 0.999948 -0.010212 0.000000
vn 0.808975 -0.010212 0.587754
vn -0.308588 -0.052650 0.949737
vn 0.308588 -0.052650 0.949737
vn -0.807895 -0.052650 0.586970
vn -0.998613 -0.052650 0.000000
vn -0.807895 -0.052650 -0.586970
vn -0.308588 -0.052650 -0.949737
vn 0.308588 -0.052650 -0.949737
vn 0.807895 -0.052650 -0.586970
vn 0.998613 -0.052650 0.000000
vn 0.807895 -0.052650 0.586970
vn -0.306275 0.132921 0.942617
vn 0.306275 0.132921 0.942617
vn -0.801838 0.132921 0.582570
vn -0.991127 0.132921 0.000000
vn -0.801838 0.132921 -0.582570
vn -0.306275 0.132920 -0.942617
vn 0.306275 0.132921 -0.942617
vn 0.801838 0.132921 -0.582570
vn 0.991127 0.132921 0.000000
vn 0.801838 0.132921 0.582569
s 1
g Columna01_geo Columna_caida_geo
usemtl initialShadingGroup
f 123/53/1 124/156/2 125/172/3 126/54/4
f 124/156/2 127/157/5 128/173/6 125/172/3
f 127/55/5 129/57/7 130/58/8 128/56/6
f 129/57/7 131/59/9 132/60/10 130/58/8
f 131/59/9 133/61/11 134/62/12 132/60/10
f 133/61/11 135/63/13 136/64/14 134/62/12
f 135/63/13 137/65/15 138/66/16 136/64/14
f 137/65/15 139/67/17 140/68/18 138/66/16
f 139/67/17 141/69/19 142/70/20 140/68/18
f 141/69/19 123/53/1 126/54/4 142/70/20
f 3/10/21 2/11/22 21/12/23 4/13/24
f 5/14/25 4/13/24 21/12/23 6/15/26
f 7/16/27 6/15/26 21/12/23 8/17/28
f 9/18/29 8/17/28 21/12/23 10/19/30
f 1/20/31 10/19/30 21/12/23 2/11/22
f 22/21/32 12/22/33 13/23/34 14/24/35
f 22/21/32 14/24/35 15/25/36 16/26/37
f 22/21/32 16/26/37 17/27/38 18/28/39
f 22/21/32 18/28/39 19/29/40 20/30/41
f 22/21/32 20/30/41 11/31/42 12/22/33
f 34/71/43 33/72/44 53/73/45 54/74/46
f 37/75/47 34/71/43 54/74/46 55/76/48
f 39/77/49 37/75/47 55/76/48 56/78/50
f 41/79/51 39/77/49 56/78/50 57/80/52
f 43/81/53 41/79/51 57/80/52 58/82/54
f 45/83/55 43/159/53 58/161/54 59/84/56
f 47/85/57 45/83/55 59/84/56 60/86/58
f 49/87/59 47/85/57 60/86/58 61/88/60
f 51/89/61 49/87/59 61/88/60 62/90/62
f 33/72/44 51/89/61 62/90/62 53/73/45
f 24/91/63 23/92/64 33/72/44 34/71/43
f 18/28/39 17/27/38 36/32/65 35/33/66
f 25/93/67 24/91/63 34/71/43 37/75/47
f 17/27/38 16/26/37 38/34/68 36/32/65
f 26/94/69 25/93/67 37/75/47 39/77/49
f 16/26/37 15/25/36 40/35/70 38/34/68
f 27/95/71 26/94/69 39/77/49 41/79/51
f 15/25/36 14/24/35 42/36/72 40/35/70
f 28/96/73 27/95/71 41/79/51 43/81/53
f 14/24/35 13/23/34 44/37/74 42/36/72
f 29/164/75 28/158/73 43/159/53 45/83/55
f 13/23/34 12/22/33 46/38/76 44/37/74
f 30/97/77 29/164/75 45/83/55 47/85/57
f 12/22/33 11/31/42 48/39/78 46/38/76
f 31/98/79 30/97/77 47/85/57 49/87/59
f 11/31/42 20/30/41 50/40/80 48/39/78
f 32/99/81 31/98/79 49/87/59 51/89/61
f 20/30/41 19/29/40 52/41/82 50/40/80
f 23/92/64 32/99/81 51/89/61 33/72/44
f 19/29/40 18/28/39 35/33/66 52/41/82
f 64/100/83 63/101/84 65/102/85 66/103/86
f 67/104/87 64/100/83 66/103/86 68/105/88
f 69/106/89 67/104/87 68/105/88 70/107/90
f 71/108/91 69/106/89 70/107/90 72/109/92
f 73/110/93 71/108/91 72/109/92 74/111/94
f 75/112/95 73/162/93 74/160/94 76/113/96
f 77/114/97 75/112/95 76/113/96 78/115/98
f 79/116/99 77/114/97 78/115/98 80/117/100
f 81/118/101 79/116/99 80/117/100 82/119/102
f 63/101/84 81/118/101 82/119/102 65/102/85
f 54/74/46 53/73/45 63/101/84 64/100/83
f 35/33/66 36/32/65 66/42/86 65/51/85
f 55/76/48 54/74/46 64/100/83 67/104/87
f 36/32/65 38/34/68 68/43/88 66/42/86
f 56/78/50 55/76/48 67/104/87 69/106/89
f 38/34/68 40/35/70 70/44/90 68/43/88
f 57/80/52 56/78/50 69/106/89 71/108/91
f 40/35/70 42/36/72 72/45/92 70/44/90
f 58/82/54 57/80/52 71/108/91 73/110/93
f 42/36/72 44/37/74 74/46/94 72/45/92
f 59/84/56 58/161/54 73/162/93 75/112/95
f 44/37/74 46/38/76 76/47/96 74/46/94
f 60/86/58 59/84/56 75/112/95 77/114/97
f 46/38/76 48/39/78 78/48/98 76/47/96
f 61/88/60 60/86/58 77/114/97 79/116/99
f 48/39/78 50/40/80 80/49/100 78/48/98
f 62/90/62 61/88/60 79/116/99 81/118/101
f 50/40/80 52/41/82 82/50/102 80/49/100
f 53/73/45 62/90/62 81/118/101 63/101/84
f 52/41/82 35/33/66 65/51/85 82/50/102
f 84/120/103 83/121/104 23/92/64 24/91/63
f 85/122/105 84/120/103 24/91/63 25/93/67
f 86/123/106 85/122/105 25/93/67 26/94/69
f 87/124/107 86/123/106 26/94/69 27/95/71
f 88/125/108 87/124/107 27/95/71 28/96/73
f 89/166/109 88/163/108 28/158/73 29/164/75
f 90/126/110 89/166/109 29/164/75 30/97/77
f 91/127/111 90/126/110 30/97/77 31/98/79
f 92/128/112 91/127/111 31/98/79 32/99/81
f 83/121/104 92/128/112 32/99/81 23/92/64
f 94/129/113 93/130/114 83/121/104 84/120/103
f 95/131/115 94/129/113 84/120/103 85/122/105
f 96/132/116 95/131/115 85/122/105 86/123/106
f 97/133/117 96/132/116 86/123/106 87/124/107
f 98/134/118 97/133/117 87/124/107 88/125/108
f 99/168/119 98/165/118 88/163/108 89/166/109
f 100/135/120 99/168/119 89/166/109 90/126/110
f 101/136/121 100/135/120 90/126/110 91/127/111
f 102/137/122 101/136/121 91/127/111 92/128/112
f 93/130/114 102/137/122 92/128/112 83/121/104
f 104/138/123 103/139/124 93/130/114 94/129/113
f 105/140/125 104/138/123 94/129/113 95/131/115
f 106/141/126 105/140/125 95/131/115 96/132/116
f 107/142/127 106/141/126 96/132/116 97/133/117
f 108/143/128 107/142/127 97/133/117 98/134/118
f 109/170/129 108/167/128 98/165/118 99/168/119
f 110/144/130 109/170/129 99/168/119 100/135/120
f 111/145/131 110/144/130 100/135/120 101/136/121
f 112/146/132 111/145/131 101/136/121 102/137/122
f 103/139/124 112/146/132 102/137/122 93/130/114
f 114/147/133 113/148/134 103/139/124 104/138/123
f 115/149/135 114/147/133 104/138/123 105/140/125
f 116/150/136 115/149/135 105/140/125 106/141/126
f 117/151/137 116/150/136 106/141/126 107/142/127
f 118/152/138 117/151/137 107/142/127 108/143/128
f 119/171/139 118/169/138 108/167/128 109/170/129
f 120/153/140 119/171/139 109/170/129 110/144/130
f 121/154/141 120/153/140 110/144/130 111/145/131
f 122/155/142 121/154/141 111/145/131 112/146/132
f 113/148/134 122/155/142 112/146/132 103/139/124
f 1/20/31 2/11/22 124/1/2 123/52/1
f 119/171/139 120/153/140 126/54/4 125/172/3
f 2/11/22 3/10/21 127/2/5 124/1/2
f 118/169/138 119/171/139 125/172/3 128/173/6
f 3/10/21 4/13/24 129/3/7 127/2/5
f 117/151/137 118/152/138 128/56/6 130/58/8
f 4/13/24 5/14/25 131/4/9 129/3/7
f 116/150/136 117/151/137 130/58/8 132/60/10
f 5/14/25 6/15/26 133/5/11 131/4/9
f 115/149/135 116/150/136 132/60/10 134/62/12
f 6/15/26 7/16/27 135/6/13 133/5/11
f 114/147/133 115/149/135 134/62/12 136/64/14
f 7/16/27 8/17/28 137/7/15 135/6/13
f 113/148/134 114/147/133 136/64/14 138/66/16
f 8/17/28 9/18/29 139/8/17 137/7/15
f 122/155/142 113/148/134 138/66/16 140/68/18
f 9/18/29 10/19/30 141/9/19 139/8/17
f 121/154/141 122/155/142 140/68/18 142/70/20
f 10/19/30 1/20/31 123/52/1 141/9/19
f 120/153/140 121/154/141 142/70/20 126/54/4
